<svg xmlns="http://www.w3.org/2000/svg" viewBox="0 0 2400 1000" preserveAspectRatio="xMidYMid slice" width="2400" height="1000">
  <defs>
    <linearGradient id="dawnSky" x1="0" y1="0" x2="0" y2="1">
      <stop offset="0" stop-color="#241a3a"/>
      <stop offset="0.45" stop-color="#6b4a6e"/>
      <stop offset="0.72" stop-color="#d98b66"/>
      <stop offset="0.9" stop-color="#f6c98a"/>
      <stop offset="1" stop-color="#ffe2ab"/>
    </linearGradient>
    <radialGradient id="dawnSun" cx="0.5" cy="0.86" r="0.4">
      <stop offset="0" stop-color="#fff4d6" stop-opacity="0.95"/>
      <stop offset="0.5" stop-color="#ffd79a" stop-opacity="0.45"/>
      <stop offset="1" stop-color="#ffd79a" stop-opacity="0"/>
    </radialGradient>
  </defs>

  <rect width="2400" height="1000" fill="url(#dawnSky)"/>
  <rect width="2400" height="1000" fill="url(#dawnSun)"/>
  <circle cx="1200" cy="858" r="70" fill="#fff3cf" opacity="0.9"/>

  <!-- far ridge -->
  <path d="M0 700 L240 660 L520 690 L780 640 L1080 672 L1380 632 L1700 676 L2000 640 L2400 686 L2400 1000 L0 1000 Z"
        fill="#7c5c7e" opacity="0.55"/>
  <!-- mid ridge -->
  <path d="M0 780 L300 742 L640 786 L980 736 L1320 792 L1680 744 L2040 798 L2400 752 L2400 1000 L0 1000 Z"
        fill="#5b3f63" opacity="0.7"/>
  <!-- near ridge -->
  <path d="M0 868 L360 834 L760 880 L1160 832 L1560 884 L1980 838 L2400 882 L2400 1000 L0 1000 Z"
        fill="#33223f"/>
  <!-- foreground haze -->
  <rect y="900" width="2400" height="100" fill="#1c1430" opacity="0.85"/>
</svg>
